<svg width="149" height="157" viewBox="0 0 149 157" fill="none" xmlns="http://www.w3.org/2000/svg">
<path d="M20.1684 156.234L20.5173 153.369L17.8612 154.499L20.1684 156.234ZM148.668 14.2343L146.703 12.1196L145.854 14.8788L148.668 14.2343ZM19.5147 154.06C12.1551 136.553 5.7307 115.765 2.90532 95.2502C0.0794316 74.7313 0.857175 54.5088 7.87598 38.1141C14.8886 21.7337 28.1388 9.15442 50.3144 3.91333C72.5053 -1.33141 103.647 0.770181 146.424 13.8054L146.57 13.3271C103.753 0.280034 72.5134 -1.84709 50.1993 3.42674C27.8699 8.70422 14.4915 21.3908 7.41633 37.9173C0.347311 54.4293 -0.422047 74.7548 2.41 95.3184C5.24255 115.886 11.6812 136.716 19.0538 154.254L19.5147 154.06Z" fill="#9C9C9C"/>
</svg>
